<svg width="372" height="333" viewBox="0 0 372 333" fill="none" xmlns="http://www.w3.org/2000/svg">
<rect x="0.5" y="0.5" width="371" height="332" fill="white"/>
<rect x="0.5" y="0.5" width="371" height="332" stroke="#D9D9D9"/>
<path d="M54.0001 82.2963L269 298.296" stroke="#D9D9D9" stroke-dasharray="2 2"/>
<path d="M268.593 298.447L24.7671 208.979" stroke="#D9D9D9" stroke-dasharray="2 2"/>
<path d="M119.369 21.4581C120.174 20.7021 120.214 19.4364 119.458 18.6311C118.702 17.8258 117.436 17.7858 116.631 18.5419L119.369 21.4581ZM20 112L42.4846 106.73L26.6783 89.8927L20 112ZM116.631 18.5419L114.404 20.6328L117.142 23.5491L119.369 21.4581L116.631 18.5419ZM109.949 24.8146L105.495 28.9964L108.233 31.9127L112.687 27.7309L109.949 24.8146ZM101.04 33.1782L96.5857 37.36L99.3234 40.2763L103.778 36.0945L101.04 33.1782ZM92.1311 41.5419L87.6766 45.7237L90.4143 48.64L94.8689 44.4581L92.1311 41.5419ZM83.222 49.9055L78.7675 54.0873L81.5052 57.0036L85.9598 52.8218L83.222 49.9055ZM74.3129 58.2691L69.8584 62.4509L72.5961 65.3672L77.0507 61.1854L74.3129 58.2691ZM65.4038 66.6328L60.9493 70.8146L63.687 73.7309L68.1416 69.5491L65.4038 66.6328ZM56.4948 74.9964L52.0402 79.1782L54.778 82.0945L59.2325 77.9127L56.4948 74.9964ZM47.5857 83.36L43.1311 87.5419L45.8689 90.4582L50.3234 86.2763L47.5857 83.36ZM38.6766 91.7237L34.222 95.9055L36.9598 98.8218L41.4143 94.64L38.6766 91.7237ZM29.7675 100.087L25.3129 104.269L28.0507 107.185L32.5052 103.004L29.7675 100.087ZM119.369 21.4581C120.174 20.7021 120.214 19.4364 119.458 18.6311C118.702 17.8258 117.436 17.7858 116.631 18.5419L119.369 21.4581ZM20 112L42.4846 106.73L26.6783 89.8927L20 112ZM116.631 18.5419L114.404 20.6328L117.142 23.5491L119.369 21.4581L116.631 18.5419ZM109.949 24.8146L105.495 28.9964L108.233 31.9127L112.687 27.7309L109.949 24.8146ZM101.04 33.1782L96.5857 37.36L99.3234 40.2763L103.778 36.0945L101.04 33.1782ZM92.1311 41.5419L87.6766 45.7237L90.4143 48.64L94.8689 44.4581L92.1311 41.5419ZM83.222 49.9055L78.7675 54.0873L81.5052 57.0036L85.9598 52.8218L83.222 49.9055ZM74.3129 58.2691L69.8584 62.4509L72.5961 65.3672L77.0507 61.1854L74.3129 58.2691ZM65.4038 66.6328L60.9493 70.8146L63.687 73.7309L68.1416 69.5491L65.4038 66.6328ZM56.4948 74.9964L52.0402 79.1782L54.778 82.0945L59.2325 77.9127L56.4948 74.9964ZM47.5857 83.36L43.1311 87.5419L45.8689 90.4582L50.3234 86.2763L47.5857 83.36ZM38.6766 91.7237L34.222 95.9055L36.9598 98.8218L41.4143 94.64L38.6766 91.7237ZM29.7675 100.087L25.3129 104.269L28.0507 107.185L32.5052 103.004L29.7675 100.087Z" fill="#D9D9D9"/>
<g clip-path="url(#clip0_815_182)">
<path d="M97.9345 53.261L87.9695 63.1603L93.2283 69.8776L104.617 58.5642L97.9345 53.261Z" fill="white"/>
<rect width="16" height="10" transform="matrix(-0.711784 0.707091 0.702429 0.707091 104.139 23.9167)" fill="white"/>
<rect width="16" height="10" transform="matrix(-0.711784 0.707091 0.702429 0.707091 69.9734 57.8571)" fill="white"/>
<path d="M73.3448 29.2199L64.4475 38.0585L84.818 58.5642L93.3594 50.0791L73.3448 29.2199Z" fill="white"/>
<path d="M91.5512 71.7621C92.0421 71.7621 92.5268 71.5629 92.8754 71.2138L106.169 58.0078C106.528 57.6515 106.73 57.1581 106.726 56.6548C106.72 56.149 106.506 55.6631 106.14 55.3192C104.074 53.3832 101.368 52.3142 98.5198 52.3142C95.415 52.3142 92.4138 53.6124 90.2883 55.8799C86.2656 60.1655 86.2212 66.8808 90.1871 71.1667C90.5286 71.5352 91.013 71.752 91.5163 71.7621H91.5512ZM91.8118 67.0202C90.36 64.2447 90.7966 60.7811 93.0049 58.4289C94.4227 56.9189 96.4218 56.0543 98.4925 56.0543C99.7284 56.0543 100.918 56.3508 101.983 56.9164L91.8118 67.0202Z" fill="black"/>
<path d="M102.807 72.4674C102.974 72.4674 103.141 72.4449 103.301 72.4001C105.243 71.8742 106.77 70.337 107.287 68.3908C107.414 67.9075 107.346 67.4041 107.097 66.9754C106.845 66.5444 106.441 66.2406 105.959 66.1157C105.812 66.0761 105.65 66.0559 105.491 66.0559C104.641 66.0559 103.895 66.6315 103.675 67.459C103.504 68.1067 102.994 68.6199 102.345 68.7971C101.864 68.9264 101.458 69.2381 101.208 69.6717C100.956 70.1052 100.888 70.6083 101.017 71.0893C101.228 71.8993 101.965 72.4674 102.807 72.4674Z" fill="black"/>
<path d="M101.514 81.8188C103.231 81.8188 104.935 81.522 106.578 80.939C110.382 79.5912 113.44 76.8452 115.194 73.2096C117.187 69.0785 117.211 64.3419 115.26 60.2178C114.955 59.5727 114.295 59.1564 113.58 59.1564C113.298 59.1564 113.026 59.2187 112.771 59.3408C111.839 59.7869 111.44 60.9033 111.878 61.8325C113.345 64.9346 113.326 68.4954 111.828 71.6025C110.509 74.3384 108.208 76.4042 105.348 77.4182C104.112 77.8569 102.83 78.0786 101.539 78.0786C99.8544 78.0786 98.2222 77.7074 96.6847 76.9749C96.4313 76.8553 96.1626 76.7929 95.8835 76.7929C95.1659 76.7929 94.5003 77.2115 94.1896 77.8592C93.9723 78.3103 93.9415 78.8186 94.1078 79.2869C94.2717 79.7579 94.6105 80.1343 95.0601 80.3484C97.1019 81.3254 99.274 81.8188 101.514 81.8188Z" fill="black"/>
<path d="M65.0712 78.1485C66.5715 78.1485 67.983 77.5654 69.0466 76.5088L77.0278 68.5803C79.2276 66.3949 79.2512 62.8368 77.0802 60.6514L79.7415 58.0078L81.0559 59.3309C82.1055 60.3875 83.5094 60.9706 85.0095 60.9706C86.5095 60.9706 87.9213 60.3875 88.9847 59.3309L94.3023 54.0435C95.3658 52.987 95.9581 51.5792 95.9681 50.0792C95.978 48.5791 95.4042 47.1713 94.3547 46.1148L93.0404 44.7917L95.7016 42.1505C96.7511 43.2095 98.1576 43.79 99.6552 43.79C101.153 43.79 102.567 43.2095 103.63 42.1505L111.612 34.2218C113.811 32.0366 113.835 28.4784 111.664 26.2932L109.038 23.6495C107.988 22.593 106.584 22.0099 105.084 22.0099C103.584 22.0099 102.175 22.593 101.109 23.652L93.1278 31.5806C90.928 33.7659 90.9045 37.324 93.0753 39.5093L90.414 42.153L80.0154 31.6853C78.2436 29.819 75.7241 28.7401 73.1152 28.7401C71.2987 28.7401 69.5286 29.2509 67.9849 30.2177L65.225 27.4394C64.8734 27.0856 64.4064 26.8912 63.9078 26.8912C63.4096 26.8912 62.9373 27.0856 62.5836 27.4394C62.2273 27.7932 62.0299 28.2616 62.0266 28.76C62.0233 29.2583 62.2145 29.7293 62.5662 30.0806L65.3238 32.8564C62.8648 36.5292 63.286 41.4478 66.4368 44.6173L77.1126 55.3666L74.4514 58.0103C73.3995 56.9538 71.9954 56.3707 70.4981 56.3707C69.0004 56.3707 67.5864 56.9538 66.5227 58.0103L58.5416 65.939C56.3417 68.1243 56.3182 71.6799 58.4891 73.8675L61.1153 76.5114C62.1672 77.5677 63.5713 78.1485 65.0712 78.1485ZM70.4757 60.1057C70.9765 60.1057 71.4439 60.3001 71.7929 60.6514L74.4191 63.2954C75.1416 64.0227 75.1338 65.209 74.4016 65.939L66.4205 73.8675C66.0642 74.2214 65.5946 74.4132 65.096 74.4132C64.5977 74.4132 64.1281 74.2188 63.7791 73.8675L61.1529 71.2239C60.43 70.4962 60.4378 69.3103 61.1704 68.5803L69.1515 60.6514C69.5052 60.3001 69.9748 60.1057 70.4757 60.1057ZM73.0804 32.4752C74.6802 32.4752 76.228 33.1405 77.3293 34.2966L91.696 48.7585C92.4188 49.4861 92.4109 50.6722 91.6785 51.4023L86.3559 56.6897C86.0023 57.041 85.53 57.2353 85.0317 57.2353C84.5309 57.2353 84.0637 57.041 83.7147 56.6897L69.0983 41.9736C66.9374 39.8008 66.9458 36.27 69.1079 34.0823C69.1229 34.0698 69.1707 34.02 69.1831 34.0076C69.3991 33.7983 69.6295 33.6039 69.8747 33.432C70.8109 32.8115 71.927 32.4752 73.0804 32.4752ZM105.06 25.7475C105.558 25.7475 106.028 25.9419 106.377 26.2957L109.003 28.9369C109.354 29.2908 109.546 29.7592 109.542 30.2575C109.539 30.7559 109.342 31.2268 108.985 31.5781L101.004 39.5068C100.65 39.8581 100.178 40.0525 99.6799 40.0525C99.1815 40.0525 98.7118 39.8581 98.3628 39.5068L95.7366 36.8631C95.3851 36.5092 95.1938 36.0408 95.1971 35.5424C95.2004 35.0441 95.3979 34.5732 95.754 34.2218L103.735 26.2932C104.091 25.9419 104.561 25.7475 105.06 25.7475Z" fill="black"/>
</g>
<path d="M116 24L330 237.796" stroke="#D9D9D9" stroke-dasharray="2 2"/>
<path d="M329.826 237.765L86 148.296" stroke="#D9D9D9" stroke-dasharray="2 2"/>
<path d="M89 258L189 159" stroke="#D9D9D9"/>
<path d="M255 313L352 216" stroke="#D9D9D9"/>
<path d="M130.866 267.055C129.751 266.641 129 266.191 128.615 265.707C128.235 265.235 128.155 264.704 128.374 264.114C128.51 263.748 128.72 263.453 129.006 263.228C129.289 263.013 129.651 262.886 130.092 262.847L131.029 263.643C130.748 263.624 130.513 263.681 130.325 263.814C130.137 263.947 129.998 264.135 129.908 264.379C129.782 264.716 129.827 264.999 130.04 265.228C130.254 265.457 130.689 265.693 131.345 265.936C132.049 266.197 132.558 266.306 132.872 266.263C133.183 266.229 133.405 266.034 133.537 265.678C133.631 265.425 133.64 265.215 133.563 265.048C133.493 264.893 133.323 264.761 133.055 264.651L130.524 263.536C130.213 263.399 129.973 263.182 129.806 262.885C129.648 262.592 129.649 262.23 129.809 261.798C129.882 261.602 129.976 261.434 130.092 261.295C130.217 261.16 130.371 261.047 130.554 260.955C130.75 260.857 130.995 260.772 131.289 260.7L131.994 261.473C131.76 261.472 131.578 261.516 131.448 261.607C131.322 261.688 131.233 261.799 131.181 261.939C131.125 262.089 131.137 262.216 131.215 262.32C131.294 262.424 131.438 262.526 131.647 262.624L133.901 263.621C134.477 263.877 134.846 264.222 135.005 264.655C135.177 265.081 135.149 265.604 134.919 266.223C134.651 266.945 134.196 267.367 133.552 267.491C132.906 267.625 132.01 267.479 130.866 267.055ZM132.837 262.09C131.937 261.756 131.344 261.312 131.059 260.758C130.774 260.205 130.783 259.52 131.085 258.704C131.388 257.888 131.828 257.364 132.406 257.13C132.996 256.89 133.75 256.941 134.669 257.282C135.56 257.613 136.141 258.058 136.413 258.617C136.699 259.171 136.688 259.861 136.382 260.686C136.079 261.501 135.639 262.026 135.062 262.26C134.497 262.488 133.756 262.431 132.837 262.09ZM133.265 260.937C133.752 261.118 134.12 261.148 134.368 261.026C134.625 260.908 134.837 260.624 135.004 260.174C135.178 259.705 135.206 259.343 135.088 259.085C134.973 258.819 134.677 258.597 134.199 258.42C133.73 258.246 133.366 258.222 133.105 258.35C132.848 258.468 132.632 258.761 132.458 259.23C132.291 259.68 132.267 260.033 132.385 260.29C132.503 260.547 132.796 260.763 133.265 260.937ZM136.121 258.717L135.2 257.879C135.394 257.471 135.568 257.13 135.723 256.857C135.881 256.575 136.022 256.339 136.145 256.15C136.215 256.048 136.292 256.013 136.377 256.044L137.375 256.414C137.488 256.456 137.506 256.522 137.43 256.611C137.225 256.876 137.027 257.165 136.836 257.478C136.649 257.782 136.41 258.195 136.121 258.717ZM136.726 266.077C136.623 266.039 136.591 265.968 136.629 265.865L138.497 260.831C138.598 260.559 138.684 260.298 138.756 260.047C138.841 259.79 138.911 259.528 138.968 259.261C138.991 259.142 139.063 259.105 139.185 259.15L140.183 259.521C140.24 259.541 140.274 259.565 140.286 259.59C140.307 259.62 140.312 259.664 140.3 259.724C140.275 259.906 140.23 260.114 140.165 260.346C140.1 260.578 140.039 260.773 139.979 260.933L139.763 261.732L138.035 266.387C137.997 266.49 137.926 266.523 137.823 266.484L136.726 266.077ZM139.415 262.195L139.834 260.895C140.138 260.677 140.457 260.507 140.79 260.386C141.127 260.255 141.451 260.172 141.762 260.138C142.073 260.105 142.341 260.129 142.566 260.213C142.726 260.272 142.847 260.333 142.931 260.396C142.974 260.423 142.995 260.452 142.994 260.484C143.002 260.519 143.002 260.561 142.994 260.612C142.937 260.825 142.86 261.047 142.763 261.278C142.68 261.503 142.586 261.713 142.481 261.909C142.454 261.952 142.417 261.981 142.369 261.995C142.334 262.004 142.29 261.993 142.237 261.963C142.178 261.919 142.109 261.878 142.028 261.837C141.947 261.796 141.86 261.758 141.766 261.724C141.541 261.64 141.297 261.608 141.033 261.628C140.774 261.638 140.503 261.692 140.221 261.79C139.952 261.883 139.683 262.018 139.415 262.195ZM144.279 269.072C143.314 268.714 142.66 268.205 142.318 267.545C141.977 266.884 141.981 266.081 142.333 265.134L142.917 263.559C143.269 262.612 143.785 261.998 144.465 261.717C145.154 261.44 145.987 261.482 146.962 261.844C147.927 262.202 148.576 262.71 148.909 263.366C149.25 264.027 149.245 264.83 148.894 265.777L148.31 267.352C147.958 268.299 147.442 268.913 146.762 269.194C146.082 269.475 145.254 269.434 144.279 269.072ZM144.733 267.849C145.286 268.054 145.737 268.061 146.085 267.87C146.443 267.683 146.731 267.294 146.95 266.704L147.441 265.382C147.656 264.8 147.69 264.322 147.541 263.947C147.405 263.566 147.061 263.273 146.508 263.067C145.945 262.859 145.483 262.853 145.122 263.049C144.774 263.24 144.492 263.626 144.277 264.207L143.786 265.529C143.567 266.12 143.527 266.601 143.666 266.973C143.815 267.348 144.171 267.64 144.733 267.849ZM150.918 271.536C150.308 271.31 149.917 270.941 149.745 270.429C149.576 269.907 149.632 269.267 149.914 268.507L151.61 263.937C151.648 263.834 151.719 263.801 151.822 263.84L152.919 264.247C153.022 264.285 153.054 264.356 153.016 264.459L151.377 268.874C151.217 269.306 151.174 269.652 151.248 269.914C151.321 270.176 151.517 270.366 151.836 270.485C152.173 270.61 152.544 270.63 152.949 270.546C153.367 270.455 153.899 270.258 154.545 269.954L154.106 271.135C153.717 271.321 153.339 271.464 152.972 271.562C152.605 271.661 152.25 271.71 151.909 271.712C151.567 271.713 151.237 271.654 150.918 271.536ZM153.779 272.406C153.723 272.385 153.684 272.36 153.663 272.331C153.645 272.292 153.64 272.247 153.648 272.197C153.686 272.009 153.731 271.817 153.782 271.623C153.832 271.428 153.89 271.231 153.953 271.03L154.095 270.347L155.885 265.523C155.923 265.42 155.994 265.388 156.097 265.426L157.194 265.833C157.297 265.871 157.33 265.942 157.291 266.045L155.433 271.052C155.336 271.314 155.241 271.583 155.15 271.858C155.071 272.128 155.004 272.396 154.947 272.663C154.928 272.773 154.852 272.804 154.721 272.755L153.779 272.406ZM161.372 275.223C161.269 275.185 161.237 275.114 161.275 275.011L162.914 270.596C163.074 270.164 163.101 269.817 162.996 269.554C162.904 269.285 162.675 269.083 162.309 268.947C161.962 268.819 161.582 268.795 161.168 268.876C160.757 268.947 160.231 269.131 159.588 269.425L159.982 268.276C160.401 268.068 160.789 267.914 161.147 267.812C161.504 267.71 161.848 267.662 162.177 267.666C162.515 267.674 162.848 267.739 163.176 267.861C163.851 268.112 164.289 268.498 164.49 269.021C164.704 269.537 164.666 270.185 164.377 270.963L162.681 275.533C162.643 275.636 162.577 275.671 162.483 275.636L161.372 275.223ZM156.914 273.569C156.811 273.531 156.779 273.46 156.817 273.357L158.67 268.365C158.767 268.102 158.856 267.82 158.935 267.519C159.028 267.212 159.098 266.966 159.145 266.781C159.175 266.643 159.251 266.597 159.373 266.642L160.371 267.012C160.428 267.033 160.462 267.056 160.473 267.082C160.495 267.111 160.499 267.156 160.488 267.216C160.475 267.307 160.451 267.431 160.414 267.588C160.377 267.745 160.336 267.911 160.293 268.087C160.249 268.263 160.204 268.412 160.159 268.533L160.034 268.999L158.223 273.879C158.185 273.982 158.114 274.014 158.011 273.976L156.914 273.569ZM166.395 277.28C165.739 277.036 165.316 276.639 165.125 276.088C164.938 275.528 165.003 274.822 165.32 273.969L165.998 272.14C166.339 271.222 166.821 270.6 167.442 270.276C168.073 269.956 168.787 269.943 169.584 270.239C169.931 270.368 170.284 270.552 170.643 270.792C171.011 271.035 171.28 271.274 171.449 271.507L171.072 272.695C170.847 272.441 170.579 272.214 170.269 272.013C169.973 271.807 169.698 271.657 169.444 271.563C168.966 271.386 168.55 271.402 168.195 271.611C167.852 271.815 167.572 272.212 167.352 272.803L166.742 274.448C166.571 274.908 166.532 275.288 166.623 275.588C166.718 275.879 166.943 276.091 167.299 276.223C167.524 276.307 167.76 276.346 168.007 276.342C168.258 276.328 168.544 276.274 168.867 276.181C169.193 276.078 169.576 275.921 170.017 275.712L169.603 276.87C169.192 277.059 168.805 277.209 168.444 277.32C168.086 277.422 167.743 277.47 167.414 277.466C167.082 277.47 166.742 277.408 166.395 277.28ZM169.242 278.144C169.186 278.123 169.147 278.098 169.126 278.069C169.108 278.03 169.105 277.981 169.117 277.922C169.15 277.774 169.191 277.592 169.24 277.375C169.292 277.149 169.35 276.963 169.415 276.816L169.572 276.091L172.37 268.553C172.408 268.45 172.479 268.417 172.582 268.456L173.679 268.863C173.782 268.901 173.814 268.972 173.776 269.075L170.874 276.894C170.822 277.034 170.766 277.2 170.706 277.391C170.649 277.573 170.594 277.75 170.541 277.922C170.497 278.098 170.459 278.244 170.426 278.359C170.406 278.501 170.334 278.549 170.213 278.504L169.242 278.144ZM178.334 281.71C177.997 281.585 177.653 281.404 177.304 281.168C176.951 280.941 176.682 280.702 176.497 280.452L176.897 279.289C177.098 279.523 177.337 279.74 177.615 279.939C177.897 280.129 178.169 280.273 178.431 280.37C178.938 280.558 179.357 280.549 179.69 280.341C180.036 280.128 180.318 279.727 180.538 279.136L181.101 277.617C181.293 277.101 181.343 276.693 181.251 276.393C181.164 276.083 180.937 275.86 180.572 275.725C180.262 275.61 179.913 275.587 179.525 275.656C179.14 275.716 178.627 275.878 177.985 276.141L178.381 274.944C178.786 274.774 179.159 274.646 179.5 274.559C179.842 274.472 180.17 274.434 180.486 274.445C180.802 274.456 181.12 274.52 181.439 274.638C182.123 274.892 182.56 275.295 182.751 275.845C182.95 276.399 182.89 277.108 182.57 277.97L181.886 279.812C181.542 280.741 181.065 281.364 180.457 281.682C179.857 282.003 179.15 282.013 178.334 281.71ZM174.338 282.995C174.234 282.957 174.202 282.886 174.24 282.783L177.1 275.076C177.187 274.842 177.27 274.59 177.349 274.321C177.427 274.051 177.491 273.808 177.539 273.591C177.575 273.466 177.649 273.424 177.762 273.466L178.76 273.836C178.863 273.875 178.902 273.942 178.877 274.04C178.868 274.122 178.85 274.227 178.823 274.356C178.797 274.485 178.766 274.612 178.73 274.737C178.698 274.853 178.671 274.939 178.65 274.996L178.444 275.767L175.647 283.305C175.608 283.408 175.538 283.44 175.434 283.402L174.338 282.995ZM182.884 283.206C182.781 283.168 182.748 283.098 182.787 282.994L186.236 273.699C186.274 273.596 186.345 273.563 186.448 273.602L187.545 274.009C187.648 274.047 187.681 274.118 187.642 274.221L184.193 283.516C184.155 283.619 184.084 283.652 183.981 283.614L182.884 283.206ZM190.129 285.895C190.073 285.875 190.038 285.84 190.024 285.792C190.019 285.748 190.018 285.694 190.02 285.631C190.042 285.543 190.077 285.375 190.127 285.126C190.186 284.882 190.249 284.654 190.316 284.445L190.449 283.87L191.488 281.072C191.651 280.631 191.677 280.288 191.565 280.044C191.466 279.794 191.2 279.589 190.769 279.429C189.982 279.137 189.49 279.269 189.294 279.826C189.256 279.929 189.19 279.963 189.096 279.928L188.013 279.526C187.91 279.488 187.885 279.383 187.938 279.21C188.107 278.612 188.489 278.231 189.083 278.067C189.68 277.894 190.401 277.964 191.245 278.277C192.107 278.597 192.672 279.031 192.938 279.578C193.208 280.115 193.195 280.782 192.899 281.579L191.798 284.547C191.68 284.865 191.581 285.159 191.503 285.429C191.424 285.698 191.362 285.937 191.317 286.144C191.294 286.264 191.222 286.301 191.1 286.255L190.129 285.895ZM187.381 285.067C186.828 284.862 186.467 284.541 186.298 284.105C186.132 283.66 186.166 283.123 186.399 282.495C186.58 282.008 186.822 281.644 187.124 281.404C187.427 281.164 187.82 281.038 188.305 281.026C188.798 281.018 189.412 281.117 190.145 281.325L191.509 281.703L191.14 282.655L189.833 282.297C189.225 282.125 188.772 282.08 188.475 282.162C188.188 282.247 187.971 282.486 187.825 282.88C187.713 283.18 187.691 283.428 187.757 283.623C187.823 283.818 187.983 283.963 188.236 284.057C188.527 284.165 188.868 284.179 189.26 284.101C189.651 284.022 190.198 283.814 190.899 283.477L190.525 284.57C190.081 284.789 189.679 284.955 189.317 285.066C188.965 285.181 188.63 285.237 188.31 285.236C188 285.238 187.69 285.182 187.381 285.067ZM197.738 288.719C197.635 288.681 197.602 288.61 197.641 288.507L199.279 284.091C199.439 283.66 199.467 283.313 199.362 283.05C199.269 282.781 199.041 282.578 198.675 282.443C198.328 282.314 197.948 282.29 197.534 282.371C197.123 282.443 196.596 282.626 195.954 282.921L196.348 281.771C196.766 281.564 197.155 281.409 197.512 281.307C197.87 281.205 198.213 281.157 198.542 281.162C198.881 281.17 199.214 281.235 199.542 281.357C200.217 281.607 200.655 281.994 200.856 282.516C201.069 283.033 201.032 283.68 200.743 284.458L199.047 289.029C199.009 289.132 198.943 289.166 198.849 289.131L197.738 288.719ZM193.28 287.065C193.177 287.026 193.144 286.956 193.183 286.852L195.035 281.86C195.133 281.598 195.221 281.316 195.301 281.015C195.394 280.708 195.464 280.462 195.511 280.277C195.541 280.138 195.617 280.092 195.739 280.137L196.737 280.508C196.793 280.529 196.827 280.552 196.839 280.578C196.86 280.607 196.865 280.651 196.854 280.711C196.841 280.802 196.816 280.926 196.779 281.083C196.743 281.24 196.702 281.407 196.658 281.582C196.614 281.758 196.57 281.907 196.525 282.029L196.4 282.494L194.589 287.374C194.551 287.477 194.48 287.51 194.377 287.472L193.28 287.065ZM203.619 291.093C202.662 290.738 202.016 290.253 201.679 289.637C201.352 289.025 201.346 288.293 201.663 287.439L202.357 285.569C202.694 284.66 203.194 284.061 203.855 283.773C204.52 283.476 205.331 283.505 206.287 283.86C207.234 284.211 207.866 284.707 208.183 285.347C208.5 285.988 208.495 286.748 208.168 287.63L207.761 288.727C207.723 288.83 207.657 288.864 207.563 288.829L203.33 287.258L203.163 287.708C202.951 288.28 202.918 288.743 203.064 289.096C203.21 289.448 203.556 289.726 204.099 289.928C204.512 290.081 204.855 290.133 205.129 290.086C205.402 290.038 205.59 289.878 205.691 289.606C205.729 289.503 205.804 289.472 205.917 289.514L207 289.916C207.084 289.947 207.118 290.013 207.102 290.114C206.906 290.756 206.499 291.165 205.879 291.34C205.263 291.506 204.509 291.424 203.619 291.093ZM203.727 286.189L206.708 287.296L206.734 287.225C206.943 286.663 206.974 286.205 206.828 285.852C206.681 285.499 206.36 285.231 205.863 285.046C205.357 284.858 204.926 284.853 204.572 285.031C204.228 285.213 203.955 285.575 203.753 286.119L203.727 286.189Z" fill="black"/>
<path d="M330.971 236.825L269.471 298.325L108.471 239.14L170 177.296L330.971 236.825Z" fill="#005BBE" fill-opacity="0.5"/>
<line x1="171.5" y1="78.3063" x2="169.5" y2="178.306" stroke="#D9D9D9" stroke-dasharray="2 2"/>
<path d="M170 178.296L330 237.296" stroke="black" stroke-width="2" stroke-linecap="round"/>
<line x1="109.5" y1="139.306" x2="107.5" y2="239.306" stroke="#D9D9D9" stroke-dasharray="2 2"/>
<path d="M226.497 114.907C225.855 114.221 225.519 113.576 225.489 112.974C225.467 112.365 225.755 111.794 226.353 111.262C226.426 111.194 226.5 111.2 226.575 111.28L227.364 112.124C227.426 112.189 227.42 112.256 227.347 112.325C227.047 112.605 226.9 112.886 226.905 113.17C226.917 113.446 227.08 113.752 227.394 114.088C227.702 114.416 227.986 114.61 228.245 114.668C228.512 114.733 228.751 114.667 228.963 114.469C229.124 114.319 229.207 114.144 229.214 113.947C229.227 113.756 229.182 113.51 229.079 113.21L228.436 111.469C228.228 110.925 228.151 110.469 228.206 110.103C228.275 109.738 228.481 109.394 228.824 109.073C229.313 108.615 229.829 108.427 230.371 108.509C230.913 108.591 231.481 108.949 232.075 109.584C232.69 110.241 233.027 110.865 233.085 111.454C233.15 112.05 232.938 112.577 232.449 113.035C232.376 113.103 232.302 113.097 232.227 113.017L231.438 112.174C231.403 112.137 231.391 112.094 231.399 112.045C231.408 111.996 231.442 111.944 231.5 111.889C231.683 111.719 231.746 111.508 231.691 111.259C231.65 111.01 231.496 110.743 231.229 110.458C230.963 110.174 230.713 110.01 230.481 109.967C230.257 109.917 230.046 109.984 229.849 110.168C229.703 110.305 229.627 110.451 229.622 110.607C229.624 110.755 229.683 111.001 229.799 111.345L230.453 113.075C230.654 113.612 230.72 114.071 230.651 114.451C230.596 114.831 230.393 115.185 230.043 115.513C229.532 115.991 228.97 116.181 228.358 116.083C227.753 115.978 227.133 115.586 226.497 114.907ZM229.845 118.221C229.769 118.141 229.772 118.063 229.852 117.988L237.092 111.213C237.172 111.138 237.25 111.141 237.325 111.221L238.125 112.075C238.2 112.155 238.197 112.233 238.117 112.308L230.877 119.083C230.797 119.158 230.719 119.156 230.644 119.075L229.845 118.221ZM235.125 123.864C235.084 123.82 235.068 123.774 235.077 123.724C235.092 123.683 235.115 123.634 235.145 123.578C235.204 123.509 235.311 123.375 235.467 123.175C235.629 122.982 235.787 122.807 235.94 122.649L236.316 122.195L238.496 120.155C238.839 119.834 239.015 119.539 239.024 119.271C239.047 119.003 238.901 118.701 238.587 118.365C238.013 117.752 237.514 117.65 237.09 118.061C237.01 118.136 236.935 118.137 236.867 118.064L236.078 117.22C236.003 117.14 236.028 117.035 236.152 116.904C236.571 116.444 237.082 116.274 237.687 116.393C238.298 116.505 238.912 116.89 239.527 117.547C240.155 118.219 240.467 118.859 240.461 119.467C240.462 120.068 240.152 120.66 239.532 121.24L237.221 123.403C236.972 123.635 236.753 123.854 236.562 124.06C236.371 124.266 236.21 124.452 236.077 124.617C236.003 124.714 235.921 124.715 235.833 124.62L235.125 123.864ZM233.036 121.895C232.633 121.464 232.453 121.016 232.497 120.551C232.548 120.078 232.818 119.613 233.308 119.155C233.687 118.8 234.066 118.583 234.444 118.503C234.821 118.424 235.229 118.487 235.668 118.693C236.114 118.905 236.618 119.269 237.182 119.783L238.233 120.73L237.478 121.416L236.468 120.513C236.001 120.087 235.616 119.844 235.314 119.784C235.018 119.732 234.717 119.85 234.411 120.137C234.177 120.355 234.046 120.567 234.018 120.771C233.99 120.975 234.068 121.176 234.253 121.373C234.465 121.599 234.763 121.765 235.149 121.87C235.535 121.974 236.116 122.033 236.894 122.044L236.071 122.855C235.576 122.853 235.142 122.821 234.769 122.759C234.403 122.705 234.078 122.605 233.792 122.461C233.514 122.325 233.262 122.136 233.036 121.895ZM240.67 129.79C240.595 129.709 240.598 129.631 240.678 129.556L244.117 126.338C244.453 126.024 244.633 125.726 244.656 125.443C244.694 125.162 244.579 124.878 244.313 124.594C244.06 124.323 243.73 124.132 243.324 124.02C242.925 123.9 242.372 123.829 241.665 123.805L242.531 122.953C242.998 122.955 243.415 122.99 243.78 123.058C244.146 123.127 244.475 123.237 244.767 123.388C245.066 123.547 245.335 123.754 245.574 124.009C246.066 124.535 246.285 125.076 246.231 125.634C246.191 126.191 245.869 126.754 245.263 127.321L241.703 130.652C241.623 130.727 241.548 130.728 241.48 130.655L240.67 129.79ZM237.421 126.318C237.346 126.237 237.349 126.16 237.429 126.084L241.317 122.446C241.522 122.255 241.727 122.042 241.933 121.808C242.153 121.575 242.325 121.386 242.45 121.242C242.539 121.132 242.627 121.124 242.716 121.219L243.444 121.997C243.485 122.04 243.505 122.076 243.504 122.105C243.51 122.14 243.494 122.182 243.457 122.23C243.405 122.307 243.328 122.407 243.225 122.53C243.121 122.654 243.011 122.785 242.893 122.923C242.776 123.06 242.669 123.174 242.574 123.262L242.255 123.623L238.454 127.18C238.374 127.255 238.296 127.252 238.221 127.172L237.421 126.318ZM244.828 134.496C244.452 134.094 244.217 133.718 244.122 133.369C244.035 133.012 244.072 132.656 244.232 132.3C244.406 131.945 244.694 131.58 245.096 131.204L247.878 128.601L247.099 127.768C247.031 127.695 247.037 127.621 247.117 127.546L247.807 126.9C247.887 126.825 247.962 126.824 248.03 126.897L248.84 127.762L250.277 126.664C250.357 126.603 250.434 126.613 250.509 126.693L251.135 127.361C251.21 127.441 251.211 127.516 251.138 127.584L249.834 128.825L251.299 130.391C251.375 130.471 251.372 130.549 251.292 130.624L250.602 131.27C250.521 131.345 250.444 131.343 250.369 131.262L248.903 129.696L246.165 132.258C245.844 132.559 245.665 132.829 245.629 133.068C245.606 133.308 245.725 133.567 245.985 133.844C246.115 133.983 246.259 134.108 246.418 134.219C246.591 134.331 246.755 134.418 246.908 134.48C246.964 134.51 246.991 134.546 246.99 134.589C247.002 134.631 246.99 134.67 246.954 134.704L246.242 135.37C246.176 135.432 246.105 135.444 246.029 135.406C245.848 135.315 245.653 135.195 245.446 135.047C245.246 134.906 245.039 134.722 244.828 134.496ZM251.435 141.557C251.189 141.294 250.963 140.979 250.756 140.611C250.541 140.25 250.407 139.917 250.354 139.611L251.231 138.748C251.306 139.048 251.424 139.349 251.583 139.651C251.75 139.947 251.93 140.197 252.121 140.401C252.49 140.796 252.87 140.975 253.26 140.938C253.664 140.902 254.097 140.669 254.557 140.238L255.74 139.131C256.141 138.755 256.368 138.413 256.421 138.103C256.481 137.787 256.378 137.486 256.111 137.202C255.886 136.961 255.584 136.784 255.206 136.673C254.835 136.554 254.303 136.469 253.612 136.418L254.501 135.524C254.938 135.553 255.329 135.605 255.674 135.68C256.018 135.755 256.329 135.868 256.607 136.019C256.885 136.169 257.14 136.369 257.372 136.617C257.871 137.15 258.083 137.706 258.007 138.283C257.938 138.868 257.568 139.475 256.896 140.104L255.461 141.446C254.738 142.123 254.033 142.467 253.347 142.48C252.667 142.5 252.03 142.192 251.435 141.557ZM247.286 140.92C247.211 140.84 247.213 140.762 247.293 140.687L253.295 135.071C253.478 134.9 253.665 134.711 253.855 134.505C254.046 134.299 254.212 134.11 254.352 133.938C254.44 133.842 254.525 133.838 254.607 133.925L255.335 134.703C255.41 134.783 255.414 134.861 255.348 134.937C255.303 135.006 255.24 135.093 255.159 135.196C255.078 135.299 254.993 135.399 254.905 135.495C254.824 135.585 254.762 135.65 254.718 135.691L254.189 136.289L248.318 141.782C248.238 141.857 248.16 141.855 248.085 141.775L247.286 140.92ZM254.837 144.928C254.762 144.848 254.764 144.77 254.845 144.695L262.084 137.92C262.164 137.845 262.242 137.848 262.317 137.928L263.117 138.782C263.192 138.863 263.189 138.94 263.109 139.016L255.869 145.79C255.789 145.865 255.711 145.863 255.636 145.783L254.837 144.928ZM260.118 150.571C260.077 150.527 260.06 150.481 260.069 150.432C260.085 150.39 260.107 150.341 260.138 150.285C260.197 150.217 260.304 150.082 260.459 149.882C260.621 149.689 260.779 149.514 260.933 149.357L261.308 148.902L263.488 146.863C263.831 146.541 264.007 146.247 264.016 145.978C264.039 145.71 263.894 145.408 263.579 145.072C263.005 144.459 262.506 144.357 262.082 144.768C262.002 144.843 261.928 144.844 261.859 144.771L261.07 143.928C260.995 143.847 261.02 143.742 261.144 143.612C261.563 143.152 262.074 142.981 262.679 143.1C263.291 143.212 263.904 143.597 264.519 144.254C265.148 144.926 265.459 145.566 265.453 146.174C265.454 146.776 265.144 147.367 264.524 147.948L262.213 150.11C261.965 150.342 261.745 150.562 261.554 150.768C261.364 150.973 261.202 151.159 261.069 151.324C260.995 151.421 260.914 151.422 260.825 151.327L260.118 150.571ZM258.029 148.602C257.625 148.172 257.446 147.723 257.489 147.258C257.54 146.786 257.811 146.321 258.3 145.863C258.68 145.507 259.058 145.29 259.436 145.211C259.813 145.131 260.222 145.194 260.661 145.4C261.106 145.613 261.611 145.976 262.174 146.49L263.225 147.438L262.47 148.124L261.46 147.22C260.993 146.794 260.608 146.551 260.306 146.492C260.011 146.439 259.709 146.557 259.403 146.844C259.169 147.062 259.038 147.274 259.01 147.478C258.982 147.682 259.061 147.883 259.245 148.08C259.457 148.307 259.756 148.472 260.141 148.577C260.527 148.682 261.109 148.74 261.887 148.752L261.064 149.563C260.568 149.56 260.134 149.528 259.762 149.466C259.395 149.412 259.07 149.313 258.784 149.169C258.506 149.032 258.254 148.843 258.029 148.602ZM265.663 156.497C265.587 156.416 265.59 156.339 265.67 156.264L269.109 153.045C269.445 152.731 269.625 152.433 269.648 152.151C269.686 151.869 269.572 151.586 269.305 151.301C269.052 151.031 268.723 150.839 268.316 150.727C267.917 150.607 267.364 150.536 266.657 150.513L267.524 149.66C267.991 149.662 268.407 149.697 268.772 149.766C269.138 149.834 269.467 149.944 269.759 150.095C270.058 150.254 270.327 150.461 270.566 150.717C271.058 151.242 271.277 151.784 271.223 152.341C271.184 152.898 270.861 153.461 270.255 154.028L266.695 157.359C266.615 157.434 266.541 157.435 266.472 157.362L265.663 156.497ZM262.414 153.025C262.338 152.945 262.341 152.867 262.421 152.792L266.309 149.153C266.514 148.962 266.719 148.749 266.925 148.516C267.145 148.282 267.317 148.094 267.442 147.949C267.531 147.839 267.62 147.831 267.709 147.926L268.436 148.704C268.477 148.748 268.497 148.784 268.496 148.812C268.502 148.847 268.487 148.889 268.45 148.938C268.398 149.014 268.32 149.114 268.217 149.238C268.114 149.362 268.003 149.492 267.885 149.63C267.768 149.768 267.661 149.881 267.566 149.97L267.247 150.33L263.446 153.887C263.366 153.962 263.288 153.959 263.213 153.879L262.414 153.025ZM269.863 161.249C269.166 160.504 268.804 159.781 268.778 159.08C268.759 158.386 269.081 157.728 269.746 157.106L271.202 155.743C271.91 155.08 272.625 154.768 273.345 154.806C274.073 154.837 274.785 155.225 275.482 155.97C276.172 156.707 276.516 157.433 276.514 158.148C276.511 158.862 276.167 159.541 275.48 160.183L274.626 160.982C274.546 161.057 274.471 161.058 274.403 160.985L271.318 157.689L270.968 158.017C270.522 158.434 270.286 158.833 270.259 159.214C270.233 159.595 270.417 159.997 270.814 160.421C271.114 160.742 271.398 160.942 271.664 161.022C271.93 161.102 272.169 161.042 272.381 160.844C272.461 160.769 272.542 160.775 272.624 160.863L273.413 161.706C273.475 161.772 273.476 161.846 273.417 161.929C272.955 162.416 272.407 162.6 271.775 162.48C271.149 162.353 270.512 161.942 269.863 161.249ZM272.15 156.91L274.323 159.232L274.378 159.181C274.816 158.771 275.049 158.375 275.075 157.994C275.102 157.613 274.934 157.229 274.572 156.842C274.203 156.447 273.821 156.251 273.425 156.252C273.035 156.26 272.629 156.462 272.205 156.859L272.15 156.91Z" fill="black"/>
<rect x="109" y="139.725" width="86.8736" height="225.783" transform="rotate(-45 109 139.725)" fill="#DE3025" fill-opacity="0.5"/>
<path d="M109 239.296L269 298.296" stroke="black" stroke-width="2" stroke-linecap="round"/>
<path d="M110 139.796L269 298.296" stroke="black" stroke-width="2" stroke-linecap="round"/>
<path d="M171 78.5463L330 237.046" stroke="black" stroke-width="2" stroke-linecap="round"/>
<defs>
<clipPath id="clip0_815_182">
<rect width="59.8025" height="59.8025" fill="white" transform="matrix(-1 0 -0.00661498 0.999978 116.98 22)"/>
</clipPath>
</defs>
</svg>
